<svg version="1.1" id="Layer_1" xmlns="http://www.w3.org/2000/svg" xmlns:xlink="http://www.w3.org/1999/xlink" x="0px" y="0px"
	 width="100%" viewBox="0 0 544 544" enable-background="new 0 0 544 544" xml:space="preserve">
<path fill="#000000" opacity="1.000000" stroke="none" 
	d="
M328.705933,34.237679 
	C359.577545,52.460125 389.764679,71.103935 420.071716,89.551964 
	C444.968628,104.706810 469.741852,120.220703 495.592896,133.598633 
	C513.574951,142.904343 519.340881,156.716385 519.289246,175.319824 
	C519.129211,232.984055 519.223755,290.648987 519.224731,348.313629 
	C519.224915,358.979919 519.378723,369.647919 519.233826,380.312073 
	C519.000122,397.505310 511.434113,410.647400 496.616852,419.345520 
	C446.196350,448.943634 395.829620,478.636749 345.192230,507.860168 
	C327.606750,518.008972 310.398712,528.853333 292.100372,537.776123 
	C281.513214,542.938721 271.393463,543.328857 260.476959,538.319275 
	C244.806747,531.128174 230.485168,521.660400 215.601120,513.154358 
	C177.848785,491.579407 140.150925,469.904968 102.629341,447.932159 
	C84.943138,437.575012 67.173019,427.367676 49.175529,417.585297 
	C33.735958,409.193207 26.842278,396.296539 26.780916,379.243195 
	C26.680172,351.244415 26.677277,323.245239 26.667358,295.246216 
	C26.652895,254.414307 26.671934,213.582397 26.668941,172.750488 
	C26.668369,164.943222 28.422607,157.543015 31.983889,150.618118 
	C34.396305,145.927170 37.878662,142.136078 42.575512,139.615067 
	C91.031960,113.606316 137.844910,84.757248 185.304352,57.026211 
	C207.886703,43.831112 230.660065,30.932383 252.832336,17.076006 
	C269.379761,6.734818 285.120270,7.496851 301.176697,17.243551 
	C310.290619,22.775946 319.322723,28.443098 328.705933,34.237679 
M172.812790,106.368019 
	C139.075256,126.208603 105.852440,146.957642 71.235794,165.245026 
	C63.572388,169.293488 61.293953,174.794220 61.375164,182.383423 
	C61.496361,193.708817 61.884701,205.032028 61.945099,216.357300 
	C62.230362,269.845215 62.136669,323.332886 61.264927,376.815216 
	C61.196289,381.026215 62.487545,383.344513 66.261856,385.382965 
	C101.291245,404.302216 135.390793,424.858276 169.816772,444.832733 
	C202.372955,463.722290 235.078186,482.348969 267.624664,501.250427 
	C274.202148,505.070312 279.232513,504.836395 285.782928,500.950714 
	C330.053436,474.689545 374.567291,448.838379 419.020203,422.885040 
	C438.873352,411.294006 458.924438,400.036316 478.232544,387.532593 
	C481.326538,385.528992 483.873291,383.765717 483.858154,379.088806 
	C483.641998,312.262665 483.625214,245.435577 483.750702,178.609085 
	C483.762299,172.433350 481.917297,168.301575 476.359955,165.227478 
	C443.263000,146.919586 411.048828,127.117027 378.853058,107.281784 
	C347.652435,88.059639 316.168457,69.291344 285.183502,49.730442 
	C279.201996,45.954308 275.064026,46.187271 269.489624,49.497013 
	C237.550262,68.460625 205.475189,87.195679 172.812790,106.368019 
z"/>
<path fill="#000000" opacity="1.000000" stroke="none" 
	d="
M340.785309,335.745819 
	C331.380371,345.240631 319.773041,350.194641 307.885437,354.654053 
	C301.424957,357.077606 294.674988,358.098267 287.839294,358.181793 
	C274.186676,358.348724 260.529114,358.136475 246.877258,358.333282 
	C242.599777,358.394897 240.786377,356.845062 240.819839,352.575439 
	C241.152679,310.121918 239.941147,267.661224 241.445984,225.212265 
	C241.670074,218.891052 241.730438,212.562286 241.755234,206.236572 
	C241.766037,203.478195 242.550369,201.747742 245.703873,201.833466 
	C264.163483,202.335327 282.789307,199.859650 301.067139,202.833420 
	C346.197174,210.176010 373.040039,250.024399 364.930450,293.567413 
	C363.112793,303.327057 358.264740,311.633301 353.907715,320.077698 
	C350.912720,325.882324 345.407440,330.391724 340.785309,335.745819 
M277.688904,323.202667 
	C289.409393,323.289459 300.790436,322.684570 311.426483,316.363770 
	C338.210083,300.446838 339.148804,259.771942 312.876434,243.029755 
	C303.076569,236.784744 292.334717,234.968826 280.909363,235.134308 
	C276.481384,235.198456 275.204834,236.451874 275.235260,240.813309 
	C275.415436,266.633453 275.325226,292.455444 275.382965,318.276703 
	C275.386780,319.970917 274.621979,322.065674 277.688904,323.202667 
z"/>
<path fill="#000000" opacity="1.000000" stroke="none" 
	d="
M148.000000,201.842133 
	C162.815857,201.578888 177.130966,201.253967 191.447891,201.078537 
	C199.198807,200.983566 199.600601,201.396881 199.079346,208.900955 
	C198.559601,216.383545 197.934967,223.857224 198.885620,231.336288 
	C199.364014,235.099899 197.151276,235.330948 194.341309,235.307739 
	C178.018524,235.172821 161.691376,235.274460 145.374359,234.909470 
	C140.510605,234.800674 138.756897,236.373108 139.031250,241.142502 
	C139.337051,246.458191 139.440582,251.812103 139.170822,257.125977 
	C138.951996,261.436707 140.337219,263.068665 144.810745,262.909851 
	C158.451752,262.425690 172.103958,262.224213 185.753464,262.026276 
	C192.516342,261.928192 192.452484,262.040283 192.398163,268.874908 
	C192.329712,277.490295 192.381668,286.106628 192.381668,295.281250 
	C186.189941,295.281250 180.252777,295.270599 174.315689,295.283691 
	C164.487549,295.305328 154.654877,295.529114 144.833374,295.288910 
	C140.351807,295.179291 138.979080,296.882141 139.177994,301.143555 
	C139.449554,306.961548 139.456299,312.809875 139.197525,318.628387 
	C139.019257,322.636475 140.565048,323.807617 144.431076,323.720337 
	C160.909195,323.348328 177.396774,323.359375 193.871613,322.898895 
	C198.638306,322.765717 200.097290,324.127289 200.165100,329.030884 
	C200.284546,337.670013 198.566330,346.292816 200.009537,354.931549 
	C200.484818,357.776581 198.905121,358.947021 196.258759,358.835754 
	C167.121918,357.610809 137.973038,358.556152 108.830574,358.381165 
	C105.217598,358.359436 104.090858,356.521545 104.096359,353.463806 
	C104.130814,334.324890 103.967995,315.180756 104.382820,296.049438 
	C104.599457,286.058044 105.188622,276.040283 104.594559,266.089447 
	C103.402237,246.117264 104.924011,226.145035 104.007042,206.190842 
	C103.849770,202.768433 104.860962,201.597839 108.524033,201.674881 
	C121.511452,201.948090 134.507324,201.819244 148.000000,201.842133 
z"/>
<path fill="#000000" opacity="1.000000" stroke="none" 
	d="
M426.961609,240.980667 
	C437.156311,240.462250 437.075165,240.466278 437.445862,247.948822 
	C438.830383,275.895966 437.944000,303.860992 438.161957,331.817017 
	C438.217743,338.973755 437.992798,346.133148 438.081177,353.289032 
	C438.126343,356.944489 437.211731,358.639648 432.965118,358.419739 
	C424.996124,358.007111 416.989197,358.186066 409.001953,358.332733 
	C405.523956,358.396576 403.712433,357.343597 403.715607,353.576660 
	C403.746521,316.623627 403.709900,279.670502 403.712311,242.717422 
	C403.712341,242.251129 403.971588,241.784851 404.206024,240.994019 
	C411.600250,240.994019 419.034515,240.994019 426.961609,240.980667 
z"/>
<path fill="#000000" opacity="1.000000" stroke="none" 
	d="
M287.998260,431.124573 
	C275.336884,431.142365 263.171783,431.002930 251.015289,431.264862 
	C246.521759,431.361694 244.456543,429.916473 244.672180,425.322998 
	C244.843872,421.665344 244.759415,417.994904 244.759689,414.330139 
	C244.759903,411.354156 246.278931,410.262634 249.169769,410.298218 
	C267.321625,410.521820 285.474792,410.790985 303.626801,410.746674 
	C308.014008,410.735962 309.657959,412.159393 309.383820,416.499664 
	C309.153442,420.146362 309.268433,423.837250 309.535461,427.486267 
	C309.766632,430.645935 308.468079,431.599670 305.485901,431.474152 
	C299.828400,431.235962 294.161133,431.229370 287.998260,431.124573 
z"/>
<path fill="#000000" opacity="1.000000" stroke="none" 
	d="
M289.989471,149.263031 
	C276.510986,149.573563 263.509094,148.565277 250.544312,149.898788 
	C247.402161,150.222000 245.800430,148.646515 245.724426,145.608459 
	C245.616104,141.279739 245.704239,136.946411 245.626266,132.616516 
	C245.577499,129.908493 247.023117,129.310486 249.428787,129.326706 
	C268.415588,129.454758 287.402924,129.532120 306.390106,129.539139 
	C308.768158,129.540024 310.245575,129.978592 310.180634,132.758743 
	C310.075745,137.249573 310.306122,141.734955 309.630249,146.222137 
	C309.185303,149.176208 307.870148,150.343369 304.943909,149.775864 
	C300.155334,148.847198 295.306091,149.446823 289.989471,149.263031 
z"/>
<path fill="#000000" opacity="1.000000" stroke="none" 
	d="
M421.049194,191.812820 
	C429.107239,193.003708 437.198120,202.328781 437.221100,209.974426 
	C437.234100,214.299683 430.308838,223.228607 425.498901,225.088165 
	C420.318268,227.091049 414.158020,225.590836 410.335480,220.730698 
	C407.437744,217.046356 402.152191,214.042068 404.797394,207.984253 
	C408.008759,200.629654 411.290253,193.214890 421.049194,191.812820 
z"/>
</svg>